<?xml version="1.0" encoding="UTF-8" standalone="no"?>
<svg width="75px" height="75px" viewBox="0 0 75 75" version="1.1" xmlns="http://www.w3.org/2000/svg" xmlns:xlink="http://www.w3.org/1999/xlink" xmlns:sketch="http://www.bohemiancoding.com/sketch/ns">
    <title>logo</title>
    <description>Created with Sketch (http://www.bohemiancoding.com/sketch)</description>
    <defs></defs>
    <g id="final-Copy" stroke="none" stroke-width="1" fill="none" fill-rule="evenodd" sketch:type="MSPage">
        <path d="M70.561,39.154 L74.482,35.197 L70.151,31.692 L73.095,26.961 L68.092,24.508 L69.907,19.241 L64.485,17.963 L65.083,12.423 L59.512,12.383 L58.863,6.85 L53.422,8.051 L51.558,2.801 L46.521,5.182 L43.535,0.478 L39.155,3.921 L35.197,0 L31.692,4.33 L26.961,1.388 L24.508,6.39 L19.241,4.574 L17.963,9.997 L12.423,9.399 L12.384,14.97 L6.85,15.619 L8.051,21.06 L2.801,22.924 L5.182,27.961 L0.478,30.946 L3.921,35.327 L0,39.285 L4.33,42.79 L1.388,47.521 L6.39,49.974 L4.575,55.241 L9.997,56.519 L9.399,62.059 L14.97,62.098 L15.619,67.632 L21.06,66.431 L22.924,71.681 L27.961,69.299 L30.947,74.004 L35.327,70.561 L39.285,74.482 L42.79,70.152 L47.521,73.094 L49.974,68.091 L55.241,69.907 L56.519,64.485 L62.059,65.083 L62.098,59.512 L67.632,58.862 L66.43,53.422 L71.68,51.558 L69.3,46.521 L74.004,43.535 L70.561,39.154 L70.561,39.154 Z M37.241,67.077 C20.764,67.077 7.408,53.72 7.408,37.244 C7.408,20.767 20.764,7.411 37.241,7.411 C53.718,7.411 67.074,20.767 67.074,37.244 C67.074,53.72 53.718,67.077 37.241,67.077 L37.241,67.077 Z M37.241,9.244 C21.777,9.244 9.241,21.78 9.241,37.244 C9.241,52.708 21.777,65.244 37.241,65.244 C52.705,65.244 65.241,52.708 65.241,37.244 C65.241,21.78 52.705,9.244 37.241,9.244 L37.241,9.244 Z M43.266,15.309 C43.986,15.165 44.186,14.59 44.186,14.59 L44.705,14.59 L44.705,20.466 L43.842,20.466 L43.842,15.861 L43.266,15.861 L43.266,15.309 L43.266,15.309 Z M40.602,15.797 C40.602,15.797 40.594,14.526 41.753,14.526 C42.912,14.526 42.905,15.797 42.905,15.797 L42.905,19.259 C42.905,19.259 42.912,20.53 41.753,20.53 C40.594,20.53 40.602,19.259 40.602,19.259 L40.602,15.797 L40.602,15.797 Z M37.699,19.611 C37.699,19.611 39.121,17.484 39.161,16.045 C39.161,15.725 39.13,15.325 38.874,15.325 C38.634,15.325 38.586,15.669 38.586,16.045 L38.586,16.453 L37.723,16.453 L37.723,16.045 C37.723,15.254 37.93,14.526 38.874,14.526 C39.753,14.526 40.026,15.181 40.026,15.989 C40.026,17.188 39.114,18.859 38.674,19.611 L40.041,19.611 L40.041,20.466 L37.699,20.466 L37.699,19.611 L37.699,19.611 Z M35.202,19.579 L36.042,19.579 L36.042,20.467 L35.202,20.467 L35.202,19.579 Z M32.483,14.59 L34.978,14.59 L34.978,15.477 L34.162,15.477 L34.162,20.466 L33.299,20.466 L33.299,15.477 L32.483,15.477 L32.483,14.59 L32.483,14.59 Z M30.779,17.732 C30.37,17.132 29.987,16.533 29.987,15.901 C29.987,15.261 30.299,14.542 31.115,14.526 C32.154,14.502 32.322,15.429 32.322,16.085 L31.474,16.165 C31.474,15.773 31.418,15.317 31.13,15.317 C30.907,15.325 30.834,15.565 30.834,15.901 C30.834,16.301 31.178,16.749 31.514,17.236 C31.913,17.836 32.322,18.419 32.322,19.051 C32.322,19.835 32.066,20.53 31.122,20.53 C30.011,20.53 29.867,19.691 29.867,18.819 L30.714,18.739 C30.714,19.227 30.762,19.739 31.122,19.739 C31.378,19.739 31.474,19.459 31.474,19.091 C31.474,18.699 31.106,18.228 30.779,17.732 L30.779,17.732 Z M27.586,14.59 L29.562,14.59 L29.562,15.477 L28.45,15.477 L28.45,17.02 L29.25,17.02 L29.25,17.964 L28.45,17.964 L28.45,19.579 L29.562,19.579 L29.562,20.466 L27.586,20.466 L27.586,14.59 L27.586,14.59 Z M15.108,24.832 L38.608,24.832 L38.608,25.832 L15.108,25.832 L15.108,24.832 Z M15.09,44.836 L16.215,44.836 L16.215,28.906 L15.09,28.906 L15.09,27.48 L18.826,27.48 L21.697,42.511 L24.516,27.48 L28.287,27.48 L28.287,28.906 L27.161,28.906 L27.161,44.836 L28.287,44.836 L28.287,46.262 L23.974,46.262 L23.974,44.836 L25.1,44.836 L25.1,29.804 L21.965,46.262 L20.268,46.262 L17.151,29.698 L17.151,44.836 L18.293,44.836 L18.293,46.262 L15.09,46.262 L15.09,44.836 L15.09,44.836 Z M15.108,47.858 L30.241,47.858 L30.241,48.858 L15.108,48.858 L15.108,47.858 Z M30.861,59.767 L30.061,59.767 L30.061,55.825 L30.013,55.825 L29.982,56.073 L29.43,59.767 L29.062,59.767 L28.51,56.073 L28.478,55.825 L28.43,55.825 L28.43,59.767 L27.631,59.767 L27.631,53.89 L28.686,53.89 L29.197,56.576 L29.238,56.888 L29.254,56.888 L29.293,56.576 L29.805,53.89 L30.861,53.89 L30.861,59.767 L30.861,59.767 Z M30.669,38.985 C30.658,38.962 30.554,38.973 30.506,38.985 C30.461,38.997 30.245,38.962 30.245,38.962 C30.008,39.067 29.938,38.939 29.909,38.939 C29.881,38.939 29.746,39.008 29.55,39.049 C29.352,39.089 29.293,38.903 29.293,38.839 C29.293,38.776 29.05,38.457 29.05,38.457 C28.864,38.132 28.91,37.859 28.928,37.848 C28.946,37.836 29.038,37.673 29.074,37.633 C29.108,37.592 29.148,37.65 29.148,37.65 C29.27,37.516 29.369,37.633 29.422,37.755 C29.473,37.877 29.346,37.987 29.346,37.987 C29.397,38.05 29.479,38.184 29.479,38.184 C29.479,38.155 29.492,37.928 29.492,37.899 C29.492,37.871 29.793,37.564 29.886,37.679 C29.978,37.795 29.931,37.993 29.931,37.993 C29.978,37.993 30.002,38.045 30.002,38.045 L30.339,37.975 C30.339,37.975 30.485,37.696 30.593,37.696 C30.593,37.696 30.625,37.295 30.748,37.295 C30.748,37.295 30.841,37.093 31.012,36.969 C31.181,36.845 32.606,34.958 32.914,34.71 C32.914,34.71 33.395,33.967 33.627,33.828 C33.859,33.689 34.339,32.373 34.509,32.296 C34.68,32.218 36.118,30.609 36.305,30.254 C36.49,29.897 37.17,29.092 37.449,28.968 C37.449,28.968 37.79,27.251 39.539,26.925 C39.539,26.925 40.668,26.74 40.9,26.523 C40.9,26.523 41.086,25.812 41.426,25.58 C41.426,25.58 41.643,24.512 42.433,23.97 C42.433,23.97 43.082,23.01 43.701,23.134 C44.32,23.258 45.202,24.295 45.45,25.904 C45.45,25.904 45.473,26.432 45.087,26.803 C44.7,27.174 44.568,28.458 44.568,28.458 C44.568,28.458 44.383,28.984 44.227,29.062 C44.227,29.062 44.8,30.129 44.8,31.429 C44.8,31.429 45.016,32.048 45.016,32.249 C45.016,32.249 45.403,32.884 45.403,33.054 C45.403,33.054 46.115,33.704 46.208,33.704 C46.301,33.704 46.456,33.503 47.601,34.571 C47.601,34.571 48.793,35.437 49.241,35.607 C49.241,35.607 49.814,35.917 49.86,36.04 C49.86,36.04 50.093,36.18 50.232,36.18 C50.371,36.18 50.649,36.371 50.649,36.371 C50.649,36.371 50.727,36.668 50.131,36.598 C50.131,36.598 50.596,36.869 50.603,37.14 C50.611,37.41 50.712,37.627 50.51,37.758 C50.51,37.758 50.565,38.169 50.147,38.231 C50.147,38.231 49.86,38.509 49.698,38.501 C49.698,38.501 49.566,38.741 49.451,38.795 C49.334,38.85 49.04,38.803 49.04,38.803 C49.04,38.803 48.955,38.509 49.241,38.47 C49.241,38.47 49.079,38.262 49.033,38.253 C49.033,38.253 48.723,38.084 48.669,37.975 C48.615,37.867 48.289,37.635 48.197,37.689 C48.197,37.689 48.018,37.673 47.995,37.604 C47.995,37.604 47.747,37.689 47.438,37.363 C47.438,37.363 47.044,37.023 46.851,37.047 C46.656,37.07 46.185,36.722 46.123,36.668 C46.061,36.613 45.403,36.466 44.777,36.025 C44.149,35.585 43.353,35.205 43.353,35.205 C43.353,35.205 42.726,35.93 42.454,37.139 L42.418,37.145 C39.12,37.639 35.855,35.923 35.823,35.906 L35.77,35.878 C35.855,35.594 36.014,35.338 36.2,35.079 C36.484,34.685 36.566,34.163 36.566,34.163 C36.566,34.163 35.561,35.393 35.306,35.532 C35.051,35.671 34.928,36.094 34.673,36.228 C34.418,36.362 34.256,36.657 34.256,36.657 C33.908,37.557 32.654,38.242 32.654,38.242 C32.654,38.335 32.422,38.515 32.422,38.515 C32.033,38.839 31.801,38.805 31.801,38.805 C31.685,38.933 30.959,38.95 30.925,38.95 C30.889,38.95 30.681,39.008 30.669,38.985 L30.669,38.985 Z M55.405,28.879 L55.405,44.836 L57.119,44.836 L57.119,46.262 L51.629,46.262 L51.629,44.836 L53.344,44.836 L53.344,28.879 L50.538,28.932 L50.538,30.993 L49.378,30.993 L49.378,27.48 L59.353,27.48 L59.353,30.993 L58.193,30.993 L58.193,28.879 L55.405,28.879 L55.405,28.879 Z M39.725,45.289 C38.427,46.153 36.262,48.008 35.584,48.595 L32.989,46.148 L33.743,45.575 C33.743,45.575 35.895,43.059 35.929,42.787 C35.963,42.515 35.945,41.303 35.843,40.76 C35.783,40.439 35.23,39.731 35.094,38.724 C35.092,38.714 35.091,38.705 35.091,38.695 C35.014,38.09 35.09,37.379 35.514,36.576 C35.847,36.749 38.305,37.973 41.16,37.972 C41.608,37.972 42.066,37.942 42.528,37.873 L42.598,37.862 C43.187,38.863 44.884,41.8 44.944,42.485 C45.162,44.959 45.835,47.313 46,48.317 C44.254,49.111 42.67,49.46 42.47,49.222 L42.451,49.197 C42.084,47.528 41.532,46.554 41.45,44.211 L40.329,43.304 C40.329,43.304 40.405,44.836 39.725,45.289 L39.725,45.289 Z M32.982,57.264 L32.982,59.767 L32.118,59.767 L32.118,57.264 L31.239,53.89 L32.086,53.89 L32.518,55.769 L32.542,55.825 L32.558,55.825 L32.582,55.769 L33.014,53.89 L33.862,53.89 L32.982,57.264 L32.982,57.264 Z M35.709,56.536 C36.109,57.136 36.517,57.72 36.517,58.352 C36.517,59.135 36.261,59.831 35.318,59.831 C34.206,59.831 34.062,58.991 34.062,58.12 L34.91,58.04 C34.91,58.527 34.957,59.039 35.318,59.039 C35.574,59.039 35.669,58.759 35.669,58.392 C35.669,58 35.301,57.528 34.974,57.032 C34.566,56.433 34.182,55.833 34.182,55.201 C34.182,54.562 34.494,53.842 35.31,53.826 C36.349,53.802 36.517,54.73 36.517,55.385 L35.669,55.465 C35.669,55.073 35.614,54.617 35.326,54.617 C35.102,54.626 35.03,54.865 35.03,55.201 C35.03,55.601 35.373,56.049 35.709,56.536 L35.709,56.536 Z M35.955,51.264 C35.819,51.162 35.903,51.21 34.986,51.243 C34.07,51.277 34.205,50.938 34.001,50.394 C33.797,49.851 32.304,48.832 31.964,48.561 C31.624,48.289 31.693,47.814 31.76,47.406 C31.786,47.246 32.11,46.968 32.492,46.692 L34.977,49.035 C35.199,49.289 35.326,50.23 35.326,50.36 C35.326,50.496 35.547,50.55 35.547,50.55 C35.547,50.55 35.902,50.588 36.057,50.516 C36.277,50.415 36.514,50.618 36.514,50.618 C36.786,51.093 36.091,51.365 35.955,51.264 L35.955,51.264 Z M39.173,54.777 L38.358,54.777 L38.358,59.767 L37.494,59.767 L37.494,54.777 L36.678,54.777 L36.678,53.89 L39.173,53.89 L39.173,54.777 L39.173,54.777 Z M41.054,59.767 L40.606,57.288 L40.374,57.288 L40.374,59.767 L39.51,59.767 L39.51,53.89 L40.374,53.89 C41.398,53.89 41.845,54.481 41.845,55.585 C41.845,56.169 41.694,56.696 41.366,56.92 L41.917,59.767 L41.054,59.767 L41.054,59.767 Z M44.645,58.559 C44.645,58.559 44.653,59.831 43.493,59.831 C42.334,59.831 42.342,58.559 42.342,58.559 L42.342,55.097 C42.342,55.097 42.334,53.826 43.493,53.826 C44.653,53.826 44.645,55.097 44.645,55.097 L44.645,58.559 L44.645,58.559 Z M47.525,58.559 C47.525,58.559 47.534,59.831 46.373,59.831 C45.214,59.831 45.222,58.559 45.222,58.559 L45.222,53.89 L46.086,53.89 L46.086,58.559 C46.086,58.559 46.07,58.991 46.373,58.991 C46.677,58.991 46.661,58.559 46.661,58.559 L46.661,53.89 L47.525,53.89 L47.525,58.559 L47.525,58.559 Z M48.829,50.674 C48.516,50.94 48.173,50.553 48.173,50.553 L47.8,50.866 C46.08,51.333 45.886,50.327 45.104,50.903 C44.324,51.481 43.203,51.447 42.83,51.175 C42.528,50.956 42.713,50.363 42.813,50.017 C43.636,50.007 44.784,49.612 45.559,49.303 L45.558,49.311 C46.465,48.994 47.451,50.016 47.618,50.058 C47.787,50.099 48.694,49.926 48.804,50.091 C48.915,50.255 49.141,50.409 48.829,50.674 L48.829,50.674 Z M47.741,47.858 L59.408,47.858 L59.408,48.858 L47.741,48.858 L47.741,47.858 Z M46.942,24.832 L59.408,24.832 L59.408,25.832 L46.942,25.832 L46.942,24.832 Z M41.014,55.617 C41.014,56.457 40.614,56.488 40.374,56.488 L40.374,54.745 C40.614,54.745 41.014,54.777 41.014,55.617 L41.014,55.617 Z M43.781,55.097 L43.781,58.559 C43.781,58.559 43.797,58.991 43.493,58.991 C43.19,58.991 43.205,58.559 43.205,58.559 L43.205,55.097 C43.205,55.097 43.19,54.666 43.493,54.666 C43.797,54.666 43.781,55.097 43.781,55.097 L43.781,55.097 Z M41.465,19.259 L41.465,15.797 C41.465,15.797 41.449,15.365 41.753,15.365 C42.057,15.365 42.041,15.797 42.041,15.797 L42.041,19.259 C42.041,19.259 42.057,19.691 41.753,19.691 C41.449,19.691 41.465,19.259 41.465,19.259 L41.465,19.259 Z M45.273,15.797 C45.273,15.797 45.265,14.526 46.423,14.526 C47.583,14.526 47.576,15.797 47.576,15.797 L47.576,19.259 C47.575,19.259 47.583,20.53 46.423,20.53 C45.265,20.53 45.273,19.259 45.273,19.259 L45.273,15.797 L45.273,15.797 Z M46.423,19.691 C46.728,19.691 46.712,19.259 46.712,19.259 L46.712,15.797 C46.712,15.797 46.728,15.365 46.423,15.365 C46.12,15.365 46.136,15.797 46.136,15.797 L46.136,19.259 C46.136,19.259 46.12,19.691 46.423,19.691 L46.423,19.691 Z" id="Imported-Layers" fill="#CB1F26" sketch:type="MSShapeGroup"></path>
    </g>
</svg>