<?xml version="1.0" encoding="UTF-8" standalone="no"?>
<svg width="199px" height="39px" viewBox="0 0 199 39" version="1.1" xmlns="http://www.w3.org/2000/svg" xmlns:xlink="http://www.w3.org/1999/xlink" xmlns:sketch="http://www.bohemiancoding.com/sketch/ns">
    <title>logo</title>
    <description>Created with Sketch (http://www.bohemiancoding.com/sketch)</description>
    <defs></defs>
    <g id="final-Copy" stroke="none" stroke-width="1" fill="none" fill-rule="evenodd" sketch:type="MSPage">
        <g id="Imported-Layers" sketch:type="MSLayerGroup" transform="translate(1.000000, 1.000000)" fill="#CC0000">
            <path d="M127.273,-0.332 C126.92,-0.27 126.63,-0.313 126.314,-0.169 C122.838,-0.358 119.717,0.172 116.528,0.885 C115.114,1.174 109.784,2.014 108.782,3.105 C109.023,4.45 110.163,5.015 111.287,5.398 C112.061,5.527 116.522,4.504 116.622,5.38 C116.801,6.947 116.291,8.575 116.202,10.142 C116.101,11.89 116.142,13.644 115.954,15.387 C115.771,17.083 115.47,18.785 115.85,20.478 C116.509,21.963 118.869,22.617 120.298,21.393 C120.937,19.091 120.424,16.671 120.408,14.327 C120.388,11.117 120.415,8.229 120.626,4.7 C121.019,4.227 121.621,3.944 122.335,3.904 C122.641,3.733 122.982,3.872 123.27,3.765 C123.313,3.785 123.33,3.829 123.411,3.811 C123.516,3.721 123.634,3.855 123.739,3.765 C123.796,3.777 123.789,3.854 123.879,3.835 C125.227,3.769 127.287,3.708 128.819,3.53 C129.233,3.433 129.542,3.159 129.522,2.594 C129.451,1.118 128.798,-0.158 127.273,-0.332 Z M71.185,5.356 C73.146,4.917 74.688,7.078 73.339,8.634 C72.235,9.571 69.987,9.278 69.335,8.002 C69.09,6.696 69.912,5.443 71.185,5.356 Z M109.582,14.658 C109.443,14.563 109.236,14.534 109.137,14.4 C109.053,14.437 108.954,14.472 108.88,14.4 C108.618,14.545 108.559,14.892 108.388,15.126 C108.134,16.306 107.822,17.568 107.107,18.412 C107.168,17.687 107.157,16.948 107.028,16.296 C107.003,16.169 106.973,16.045 106.938,15.925 C106.502,14.415 106.344,12.901 105.764,11.422 C105.325,10.301 105.144,8.959 103.939,8.683 C103.524,8.686 103.075,8.88 102.651,9.057 C100.226,11.28 99.021,14.725 96.779,17.133 C96.302,16.244 96.367,15.028 96.494,13.916 C96.468,12.482 97.401,9.852 95.604,9.585 C95.142,9.517 94.73,9.64 94.2,9.819 C93.482,10.124 93.258,10.923 92.889,11.575 C92.449,13.219 91.995,15.116 90.993,16.375 C90.83,13.823 90.961,9.51 87.481,9.749 C86.396,9.978 85.892,11.456 85.21,12.321 C84.885,12.616 84.55,12.893 84.178,13.102 C83.173,11.719 82.018,10.364 80.081,9.988 C78.276,10.06 77.126,11.324 76.195,12.494 C74.652,14.283 74.593,17.418 72.402,18.44 C71.749,18.02 71.762,17.099 71.771,16.427 C71.79,14.824 72.261,12.973 72.402,11.323 C72.271,10.551 71.406,10.546 70.74,10.411 C68.509,10.713 68.293,13.136 67.617,14.835 C67.179,15.935 65.504,19.336 64.821,18.653 C63.28,17.111 66.342,13.201 65.9,10.865 C65.418,9.445 63.439,9.866 62.226,10.022 C61.671,10.094 60.825,10.668 60.422,10.584 C60.204,10.538 60.148,10.25 60.001,10.162 C59.641,9.949 58.932,10.252 58.549,10.139 C58.377,10.271 58.248,10.446 58.081,10.584 C57.59,12.857 57.386,14.278 56.317,16.328 C55.91,17.106 55.043,18.306 54.218,18.637 C53.558,18.901 52.363,18.69 51.75,18.185 C52.019,18.01 52.174,17.721 52.523,17.625 C54.236,16.361 55.9,14.446 56.221,11.866 C56.335,10.949 55.816,10.122 55.168,9.642 C54.434,9.177 53.685,8.93 52.663,8.799 C52.15,8.84 51.528,8.95 51.024,9.032 C48.14,10.288 47.216,14.08 47.256,17.437 C47.179,17.626 47.111,17.849 46.995,18.029 C46.318,18.288 45.682,18.407 45.408,18.199 C45.033,17.625 44.934,16.739 44.917,15.952 C44.579,14.187 45.045,11.871 45.361,10.053 C45.746,9.457 45.673,8.185 46.438,8.063 C46.967,7.977 47.714,8.201 48.217,8.087 C50.119,7.443 48.862,4.54 47.14,4.879 C46.881,4.99 46.687,4.979 46.415,5.09 C46.341,5.015 46.285,5.027 46.181,5.066 C46.326,4.001 45.164,3.325 44.19,3.381 C43.562,3.603 43.069,3.961 42.669,4.411 C42.478,5.767 40.751,5.535 39.695,5.932 C39.629,5.991 39.547,6.034 39.462,6.073 C39.435,6.053 39.398,6.042 39.345,6.05 C39.056,6.224 38.656,6.258 38.291,6.401 C36.637,6.978 38.394,9.289 39.626,9.116 C39.856,9.084 40.213,8.962 40.445,9.023 C40.808,8.917 41.139,8.715 41.499,8.812 C41.765,9.987 41.169,12.852 40.825,13.776 C39.741,15.419 40.452,16.732 38.743,17.835 C38.735,17.451 38.703,17.075 38.633,16.727 C38.608,16.6 38.578,16.476 38.544,16.356 C38.107,14.847 37.95,13.333 37.369,11.853 C36.93,10.732 36.748,9.391 35.544,9.113 C35.129,9.117 34.68,9.31 34.256,9.488 C31.831,11.713 30.626,14.595 28.385,17.002 C28.19,16.639 28.086,16.222 28.04,15.778 L28.099,15.302 C28.07,14.888 28.066,14.456 28.075,14.017 C28.083,13.939 28.09,13.862 28.1,13.786 C28.073,12.354 29.006,9.721 27.21,9.455 C26.748,9.388 26.335,9.51 25.805,9.688 C25.087,9.994 24.864,10.792 24.494,11.445 C24.054,13.088 23.417,16.8 22.116,17.189 C21.998,15.343 21.95,12.354 21.326,10.583 C20.731,8.897 18.335,9.934 17.944,10.973 C17.689,11.655 18.009,12.34 18.139,13.12 C18.361,14.45 18.695,16.572 18.689,17.859 C18.68,19.56 18.304,21.886 20.187,22.261 C22.405,22.702 23.426,19.753 24.565,18.516 C24.662,18.581 24.765,18.643 24.798,18.773 C24.8,18.952 24.811,19.127 24.83,19.298 C24.654,19.866 24.324,20.629 24.588,20.311 C22.237,23.363 21.16,26.71 21.113,28.898 C21.184,32.238 21.018,35.017 23.799,36.899 C27.194,38.211 28.549,33.926 28.87,30.794 C29.055,28.992 28.99,27.124 28.902,25.667 C28.713,24.155 28.677,23.227 28.489,21.741 C29.529,20.441 30.55,19.343 31.22,18.36 C30.839,18.92 32.813,21.402 33.142,21.649 C34.045,22.325 35.076,22.665 36.204,22.572 C37.574,22.459 38.854,22.057 39.935,21.222 C40.196,21.019 41.928,18.326 42.015,18.36 C42.523,18.557 42.178,19.124 42.299,19.523 C42.49,20.145 42.856,20.73 43.343,21.166 C45.173,22.804 47.126,22.245 48.783,20.938 C49.494,21.283 50.368,21.711 51.172,21.891 C51.991,22.074 54.034,22.432 54.851,22.238 C56.7,21.8 58.783,19.603 59.663,18.035 C59.948,17.524 60.744,13.625 61.194,13.977 C61.766,14.425 61.359,15.076 61.251,15.618 C60.863,17.562 60.868,21.037 63.067,22.009 C64.086,22.458 66.172,22.769 66.944,21.769 C67.397,21.183 68.272,18.144 68.867,19.962 C69.24,21.1 70.06,21.747 71.255,22.045 C72.878,22.216 74.055,20.922 75.141,19.915 C76.64,21.096 77.999,22.941 80.432,22.279 C83.03,21.572 84.065,18.987 84.436,16.099 C84.551,15.981 84.744,16.198 84.908,16.129 C86.258,15.72 86.79,15.019 87.173,14.529 C87.33,15.645 87.089,16.927 87.083,17.99 C87.075,19.69 86.699,22.016 88.582,22.392 C90.8,22.832 91.821,19.882 92.959,18.644 C93.057,18.712 93.16,18.773 93.193,18.903 C93.203,20.184 93.651,21.312 94.715,21.735 C96.612,21.781 98.822,20.326 99.865,18.796 C99.773,18.931 100.662,20.189 100.774,20.352 C101.108,20.84 101.501,21.296 101.994,21.629 C102.197,21.766 102.415,21.878 102.641,21.966 C103.589,22.66 104.625,23.279 105.93,23.18 C106.343,23.096 106.701,23 107.03,22.852 C107.157,22.954 107.279,22.754 107.498,22.805 C109.604,21.17 111.758,17.409 109.582,14.658 Z M24.324,25.264 C24.31,25.303 24.32,25.384 24.256,25.344 C24.27,25.303 24.29,25.271 24.324,25.264 L24.324,25.264 Z M24.664,32.7 C24.589,32.684 24.585,32.784 24.505,32.758 C24.49,32.755 24.475,32.751 24.459,32.747 C23.891,31.699 24.146,30.218 24.224,28.904 C24.294,27.534 24.347,26.296 25.031,25.045 C25.811,27.4 25.199,29.876 24.664,32.7 L24.664,32.7 Z M34.888,18.478 C34.754,18.56 34.625,18.512 34.513,18.595 C33.849,18.347 33.491,17.791 33.015,17.354 C32.942,16.18 33.624,15.089 34.279,14.264 C35.044,15.165 35.101,17.141 34.888,18.478 L34.888,18.478 Z M50.837,15.213 C50.808,15.163 50.772,15.122 50.744,15.073 C50.767,14.1 51.041,13.055 51.633,12.333 C52.376,11.543 52.976,12.72 52.453,13.457 C52.149,13.926 51.758,14.308 51.493,14.815 C51.238,14.911 51.116,15.141 50.837,15.213 L50.837,15.213 Z M79.496,18.65 C77.982,18.02 78.695,15.172 79.683,14.508 C79.797,15.231 80.041,15.835 80.643,16.146 C80.616,17.291 80.309,18.148 79.496,18.65 L79.496,18.65 Z M101.41,16.923 C101.336,15.748 102.019,14.656 102.674,13.832 C103.439,14.734 103.495,16.709 103.283,18.047 C103.149,18.128 103.02,18.08 102.908,18.164 C102.243,17.916 101.886,17.36 101.41,16.923 Z M196.452,16.277 C196.314,16.182 196.107,16.154 196.008,16.019 C195.923,16.056 195.825,16.09 195.75,16.019 C195.489,16.163 195.43,16.511 195.259,16.745 C195.001,17.941 194.795,18.583 194.127,19.019 C194.251,18.111 194.281,17.132 194.115,16.296 C194.09,16.169 194.061,16.045 194.025,15.925 C193.588,14.415 193.433,12.901 192.853,11.422 C192.413,10.301 192.23,8.958 191.026,8.683 C190.612,8.685 190.162,8.88 189.738,9.057 C187.42,11.184 186.069,15.176 184.007,17.56 L184.007,17.585 C183.544,17.967 183.117,18.154 182.914,17.95 C181.373,16.41 184.435,12.499 183.994,10.162 C183.512,8.744 181.532,9.164 180.317,9.319 C179.766,9.392 178.918,9.966 178.516,9.882 C178.297,9.837 178.242,9.548 178.094,9.461 C177.734,9.247 177.025,9.55 176.643,9.437 C176.47,9.568 176.342,9.744 176.175,9.882 C175.684,12.156 175.48,13.576 174.41,15.625 C174.004,16.404 173.137,17.604 172.313,17.935 C171.651,18.198 170.457,17.988 169.844,17.484 C170.111,17.307 170.268,17.019 170.616,16.922 C172.33,15.659 173.994,13.744 174.315,11.163 C174.43,10.247 173.91,9.42 173.262,8.938 C172.526,8.476 171.779,8.227 170.756,8.096 C170.243,8.138 169.621,8.248 169.118,8.331 C166.233,9.586 165.31,13.378 165.35,16.734 C165.273,16.924 165.205,17.145 165.088,17.326 C164.651,17.494 164.187,17.999 163.87,17.999 C163.896,17.408 163.919,16.423 163.815,15.892 C163.789,15.764 163.759,15.641 163.725,15.521 C163.288,14.011 163.13,12.496 162.551,11.018 C162.111,9.897 161.93,8.555 160.725,8.278 C160.311,8.282 159.86,8.476 159.437,8.653 C157.012,10.877 155.807,14.32 153.565,16.728 C153.089,15.84 153.153,14.624 153.28,13.513 C153.254,12.079 154.188,9.447 152.391,9.182 C151.929,9.113 151.517,9.236 150.986,9.415 C150.269,9.72 150.045,10.519 149.675,11.171 C149.235,12.814 148.781,14.712 147.779,15.97 C147.615,13.42 147.748,9.105 144.267,9.345 C143.182,9.574 142.678,11.052 141.996,11.917 C141.671,12.212 141.337,12.489 140.964,12.698 C139.959,11.313 138.804,9.96 136.867,9.585 C135.063,9.655 133.913,10.92 132.981,12.09 C132.274,12.908 131.906,14.253 131.502,15.553 C130.816,16.946 129.731,18.765 129.215,18.249 C127.674,16.708 130.737,12.796 130.295,10.461 C129.813,9.041 127.833,9.462 126.619,9.618 C126.066,9.688 125.22,10.264 124.817,10.18 C124.599,10.134 124.542,9.846 124.396,9.759 C124.035,9.546 123.326,9.848 122.944,9.735 C122.771,9.866 122.643,10.041 122.476,10.18 C122.037,12.209 121.826,13.559 121.027,15.281 C121.523,16.498 122.827,17.301 124.27,17.023 C124.634,15.789 125.225,13.289 125.588,13.573 C126.16,14.021 125.753,14.672 125.646,15.215 C125.258,17.158 125.262,20.634 127.462,21.604 C128.481,22.054 130.567,22.366 131.339,21.364 C131.548,21.095 131.847,20.302 132.167,19.706 C133.576,20.883 134.915,22.502 137.219,21.875 C139.816,21.168 140.852,18.583 141.222,15.695 C141.338,15.577 141.531,15.794 141.695,15.725 C143.044,15.316 143.576,14.616 143.96,14.126 C144.116,15.24 143.875,16.523 143.87,17.585 C143.86,19.285 143.484,21.612 145.368,21.987 C147.586,22.428 148.607,19.477 149.746,18.241 C149.843,18.308 149.947,18.368 149.98,18.498 C149.989,19.779 150.438,20.907 151.502,21.332 C153.399,21.377 155.607,19.923 156.651,18.392 C156.56,18.526 157.448,19.784 157.562,19.949 C157.896,20.437 158.287,20.891 158.78,21.225 C160.514,22.394 163.42,21.636 165.158,20.777 C165.329,20.693 166.438,19.869 166.504,19.902 C167.214,20.246 168.462,21.009 169.266,21.188 C170.085,21.372 172.128,21.729 172.943,21.537 C174.794,21.098 176.876,18.902 177.756,17.334 C178.042,16.823 178.838,12.924 179.288,13.276 C179.859,13.723 179.452,14.374 179.344,14.917 C178.956,16.861 178.962,20.336 181.162,21.307 C181.966,21.662 183.435,21.929 184.398,21.531 C184.398,21.541 184.398,21.551 184.397,21.56 C185.632,21.017 186.284,19.773 186.952,18.796 C186.86,18.931 187.75,20.189 187.861,20.352 C188.197,20.84 188.589,21.296 189.082,21.629 C189.205,21.712 189.333,21.786 189.466,21.851 C189.469,21.9 189.473,21.952 189.479,22.001 C190.5,22.771 191.609,23.525 193.038,23.416 C193.452,23.332 193.81,23.236 194.139,23.088 C194.266,23.19 194.388,22.99 194.606,23.041 C196.713,21.407 198.629,19.027 196.452,16.277 Z M136.282,18.247 C134.769,17.617 135.481,14.768 136.469,14.103 C136.582,14.826 136.827,15.432 137.429,15.742 C137.402,16.887 137.095,17.744 136.282,18.247 L136.282,18.247 Z M160.069,17.643 C159.936,17.725 159.806,17.676 159.694,17.76 C159.029,17.512 158.673,16.955 158.196,16.519 C158.122,15.344 158.805,14.253 159.461,13.429 C160.225,14.329 160.281,16.306 160.069,17.643 L160.069,17.643 Z M168.931,14.511 C168.902,14.461 168.866,14.42 168.838,14.371 C168.861,13.398 169.134,12.352 169.728,11.631 C170.47,10.841 171.069,12.018 170.546,12.755 C170.242,13.224 169.851,13.605 169.586,14.113 C169.331,14.209 169.209,14.437 168.931,14.511 L168.931,14.511 Z M188.498,16.923 C188.424,15.747 189.106,14.656 189.762,13.832 C190.525,14.733 190.583,16.709 190.371,18.046 C190.236,18.128 190.107,18.08 189.996,18.164 C189.331,17.916 188.974,17.359 188.498,16.923 Z M16.265,12.574 C16.047,10.822 15.785,9.09 15.523,7.328 C15.174,4.988 14.84,2.643 14.411,0.315 C14.147,-1.11 12.779,-0.877 11.316,0.195 C11.013,0.313 10.748,0.47 10.591,0.734 C9.804,3.931 8.918,6.641 8.558,10.167 C7.241,8.303 7.123,7.452 6.12,5.354 C5.482,4.088 5.396,3.025 4.785,1.624 C4.387,0.709 3.212,0.026 2.374,0.851 C2.307,0.87 2.313,0.817 2.256,0.828 C0.89,1.429 0.3,2.402 0.173,3.848 C-0.083,6.779 -0.005,9.802 -0.201,13.071 C-0.232,15.268 -0.308,17.546 -0.435,19.813 C-0.333,20.477 -0.49,21.123 -0.389,21.757 C-0.283,22.149 -0.028,22.394 0.384,22.482 C1.686,22.541 2.802,21.886 3.427,20.913 C3.542,18.442 3.664,15.11 3.708,12.018 C3.716,11.397 3.562,10.206 3.896,9.817 C4.57,10.979 4.652,11.218 5.079,12.508 C5.811,14.287 5.075,12.407 5.925,14.342 C6.331,15.269 7.073,17.257 8.168,17.142 C9.011,17.052 10.008,16.8 10.362,16.019 C10.605,15.486 11.064,14.378 11.094,13.776 C11.566,11.21 11.817,10.55 12.011,9.578 C12.225,10.071 12.207,11.007 12.263,11.527 C12.603,14.602 12.816,18.752 13.166,21.202 C13.88,22.111 15.054,22.657 16.345,22.475 C16.746,22.347 16.976,22.079 17.044,21.677 C17.556,18.658 16.636,15.56 16.265,12.574 Z M4.527,7.406 C4.537,7.348 4.618,7.404 4.597,7.452 C4.546,7.465 4.565,7.408 4.527,7.406 L4.527,7.406 Z" id="Fill-1" sketch:type="MSShapeGroup"></path>
        </g>
    </g>
</svg>